<mxfile host="app.diagrams.net" modified="2023-01-17T17:02:08.425Z" agent="5.0 (Windows NT 10.0; Win64; x64) AppleWebKit/537.36 (KHTML, like Gecko) Chrome/108.0.0.0 Safari/537.36" etag="_zts2bO2XvhLwO_WvCsb" version="20.8.5" type="github">
  <diagram id="34EZfJhrYHgC37fopkoC" name="Page-1">
    <mxGraphModel dx="2206" dy="1260" grid="1" gridSize="10" guides="1" tooltips="1" connect="1" arrows="1" fold="1" page="1" pageScale="1" pageWidth="827" pageHeight="1169" math="0" shadow="0">
      <root>
        <mxCell id="0" />
        <mxCell id="1" parent="0" />
        <mxCell id="uWPHuh8nvIAf7vCWcb3A-2" style="edgeStyle=orthogonalEdgeStyle;rounded=0;orthogonalLoop=1;jettySize=auto;html=1;exitX=0.5;exitY=1;exitDx=0;exitDy=0;entryX=0.5;entryY=0;entryDx=0;entryDy=0;" edge="1" parent="1" source="fB9wuU_Gm-C1jsRpjV0--1" target="JkchHSl3erVK-wzrHskg-3">
          <mxGeometry relative="1" as="geometry" />
        </mxCell>
        <mxCell id="fB9wuU_Gm-C1jsRpjV0--1" value="Start" style="ellipse;whiteSpace=wrap;html=1;" parent="1" vertex="1">
          <mxGeometry x="335" y="20" width="120" height="40" as="geometry" />
        </mxCell>
        <mxCell id="JkchHSl3erVK-wzrHskg-3" value="Input integer&lt;br&gt;&lt;b&gt;n&lt;/b&gt;" style="shape=parallelogram;perimeter=parallelogramPerimeter;whiteSpace=wrap;html=1;fixedSize=1;" parent="1" vertex="1">
          <mxGeometry x="330" y="110" width="130" height="60" as="geometry" />
        </mxCell>
        <mxCell id="JkchHSl3erVK-wzrHskg-12" value="" style="edgeStyle=orthogonalEdgeStyle;rounded=0;orthogonalLoop=1;jettySize=auto;html=1;endArrow=none;startArrow=none;exitX=1;exitY=0.5;exitDx=0;exitDy=0;" parent="1" target="JkchHSl3erVK-wzrHskg-6" edge="1">
          <mxGeometry relative="1" as="geometry">
            <mxPoint x="587.5" y="710" as="sourcePoint" />
            <mxPoint x="387.5" y="650" as="targetPoint" />
          </mxGeometry>
        </mxCell>
        <mxCell id="JkchHSl3erVK-wzrHskg-40" style="edgeStyle=orthogonalEdgeStyle;rounded=0;orthogonalLoop=1;jettySize=auto;html=1;exitX=0.5;exitY=1;exitDx=0;exitDy=0;fontSize=11;entryX=0.5;entryY=0;entryDx=0;entryDy=0;" parent="1" source="JkchHSl3erVK-wzrHskg-6" edge="1" target="JkchHSl3erVK-wzrHskg-36">
          <mxGeometry relative="1" as="geometry">
            <mxPoint x="682.4523809523807" y="810" as="targetPoint" />
          </mxGeometry>
        </mxCell>
        <mxCell id="JkchHSl3erVK-wzrHskg-6" value="create list of divisibles&lt;br&gt;&lt;font style=&quot;font-size: 11px;&quot;&gt;ldiv = range(5,&amp;nbsp;int&lt;span style=&quot;font-family: monospace, monospace; text-align: start;&quot; class=&quot;p&quot;&gt;(&lt;/span&gt;&lt;span style=&quot;font-family: monospace, monospace; text-align: start;&quot; class=&quot;n&quot;&gt;n&lt;/span&gt;&lt;span style=&quot;font-family: monospace, monospace; text-align: start; color: rgb(102, 102, 102);&quot; class=&quot;o&quot;&gt;**&lt;/span&gt;&lt;span style=&quot;font-family: monospace, monospace; text-align: start; color: rgb(102, 102, 102);&quot; class=&quot;mf&quot;&gt;0.5&lt;/span&gt;&lt;span style=&quot;font-family: monospace, monospace; text-align: start;&quot; class=&quot;p&quot;&gt;)+1,6)&lt;/span&gt;&lt;/font&gt;" style="whiteSpace=wrap;html=1;" parent="1" vertex="1">
          <mxGeometry x="617.5" y="700" width="150" height="60" as="geometry" />
        </mxCell>
        <mxCell id="uWPHuh8nvIAf7vCWcb3A-1" style="edgeStyle=orthogonalEdgeStyle;rounded=0;orthogonalLoop=1;jettySize=auto;html=1;exitX=0;exitY=0.5;exitDx=0;exitDy=0;entryX=0.558;entryY=0.017;entryDx=0;entryDy=0;entryPerimeter=0;" edge="1" parent="1" target="JkchHSl3erVK-wzrHskg-26">
          <mxGeometry relative="1" as="geometry">
            <mxPoint x="520" y="410" as="sourcePoint" />
            <Array as="points">
              <mxPoint x="520" y="430" />
              <mxPoint x="419" y="430" />
            </Array>
          </mxGeometry>
        </mxCell>
        <mxCell id="JkchHSl3erVK-wzrHskg-11" value="is n//2==0 or n//3==0" style="rhombus;whiteSpace=wrap;html=1;" parent="1" vertex="1">
          <mxGeometry x="520" y="390" width="80" height="80" as="geometry" />
        </mxCell>
        <mxCell id="JkchHSl3erVK-wzrHskg-20" value="" style="edgeStyle=orthogonalEdgeStyle;rounded=0;orthogonalLoop=1;jettySize=auto;html=1;endArrow=none;" parent="1" source="JkchHSl3erVK-wzrHskg-3" target="JkchHSl3erVK-wzrHskg-19" edge="1">
          <mxGeometry relative="1" as="geometry">
            <mxPoint x="400" y="200" as="sourcePoint" />
            <mxPoint x="420" y="524.5" as="targetPoint" />
          </mxGeometry>
        </mxCell>
        <mxCell id="JkchHSl3erVK-wzrHskg-22" value="" style="edgeStyle=orthogonalEdgeStyle;rounded=0;orthogonalLoop=1;jettySize=auto;html=1;" parent="1" source="JkchHSl3erVK-wzrHskg-19" target="JkchHSl3erVK-wzrHskg-23" edge="1">
          <mxGeometry relative="1" as="geometry">
            <mxPoint x="500" y="260" as="targetPoint" />
          </mxGeometry>
        </mxCell>
        <mxCell id="JkchHSl3erVK-wzrHskg-19" value="is n&amp;lt;=3" style="rhombus;whiteSpace=wrap;html=1;" parent="1" vertex="1">
          <mxGeometry x="355" y="200" width="80" height="80" as="geometry" />
        </mxCell>
        <mxCell id="JkchHSl3erVK-wzrHskg-23" value="print(n + &quot; is a prime number&quot;)" style="shape=parallelogram;perimeter=parallelogramPerimeter;whiteSpace=wrap;html=1;fixedSize=1;" parent="1" vertex="1">
          <mxGeometry x="150" y="290" width="190" height="60" as="geometry" />
        </mxCell>
        <mxCell id="JkchHSl3erVK-wzrHskg-26" value="print(n &quot;is not a prime number&quot;)" style="shape=parallelogram;perimeter=parallelogramPerimeter;whiteSpace=wrap;html=1;fixedSize=1;" parent="1" vertex="1">
          <mxGeometry x="330" y="524" width="160" height="60" as="geometry" />
        </mxCell>
        <mxCell id="JkchHSl3erVK-wzrHskg-33" value="yes" style="edgeStyle=orthogonalEdgeStyle;rounded=0;orthogonalLoop=1;jettySize=auto;html=1;fontSize=11;exitX=0;exitY=0.5;exitDx=0;exitDy=0;" parent="1" source="JkchHSl3erVK-wzrHskg-30" edge="1">
          <mxGeometry relative="1" as="geometry">
            <Array as="points">
              <mxPoint x="562.5" y="945" />
            </Array>
            <mxPoint x="562.5" y="1080" as="targetPoint" />
          </mxGeometry>
        </mxCell>
        <mxCell id="JkchHSl3erVK-wzrHskg-44" value="" style="edgeStyle=orthogonalEdgeStyle;rounded=0;orthogonalLoop=1;jettySize=auto;html=1;fontSize=11;" parent="1" source="JkchHSl3erVK-wzrHskg-30" edge="1">
          <mxGeometry relative="1" as="geometry">
            <mxPoint x="842.4761904761904" y="1000.014652014652" as="targetPoint" />
          </mxGeometry>
        </mxCell>
        <mxCell id="JkchHSl3erVK-wzrHskg-30" value="if n//divisible==0 or n//(divisible+2)==0" style="rhombus;whiteSpace=wrap;html=1;" parent="1" vertex="1">
          <mxGeometry x="602.5" y="905" width="130" height="80" as="geometry" />
        </mxCell>
        <mxCell id="JkchHSl3erVK-wzrHskg-32" value="print(n &quot;is not a prime number&quot;)" style="shape=parallelogram;perimeter=parallelogramPerimeter;whiteSpace=wrap;html=1;fixedSize=1;" parent="1" vertex="1">
          <mxGeometry x="472.5" y="1050" width="135" height="60" as="geometry" />
        </mxCell>
        <mxCell id="JkchHSl3erVK-wzrHskg-42" style="edgeStyle=orthogonalEdgeStyle;rounded=0;orthogonalLoop=1;jettySize=auto;html=1;exitX=0.5;exitY=1;exitDx=0;exitDy=0;entryX=0.5;entryY=0;entryDx=0;entryDy=0;fontSize=11;" parent="1" source="JkchHSl3erVK-wzrHskg-36" target="JkchHSl3erVK-wzrHskg-30" edge="1">
          <mxGeometry relative="1" as="geometry" />
        </mxCell>
        <mxCell id="JkchHSl3erVK-wzrHskg-36" value="n//divisible" style="rounded=0;whiteSpace=wrap;html=1;fontSize=11;" parent="1" vertex="1">
          <mxGeometry x="607.5" y="800" width="120" height="60" as="geometry" />
        </mxCell>
        <mxCell id="JkchHSl3erVK-wzrHskg-45" value="print(n &quot;is a prime number&quot;)" style="shape=parallelogram;perimeter=parallelogramPerimeter;whiteSpace=wrap;html=1;fixedSize=1;" parent="1" vertex="1">
          <mxGeometry x="760" y="1030" width="160" height="60" as="geometry" />
        </mxCell>
        <mxCell id="uWPHuh8nvIAf7vCWcb3A-3" value="print(Continue with test)" style="shape=parallelogram;perimeter=parallelogramPerimeter;whiteSpace=wrap;html=1;fixedSize=1;" vertex="1" parent="1">
          <mxGeometry x="472.5" y="280" width="190" height="60" as="geometry" />
        </mxCell>
        <mxCell id="uWPHuh8nvIAf7vCWcb3A-4" value="Continue with test" style="shape=parallelogram;perimeter=parallelogramPerimeter;whiteSpace=wrap;html=1;fixedSize=1;" vertex="1" parent="1">
          <mxGeometry x="602.5" y="524" width="160" height="60" as="geometry" />
        </mxCell>
      </root>
    </mxGraphModel>
  </diagram>
</mxfile>
